<?xml version="1.0" encoding="UTF-8" standalone="no"?><!DOCTYPE svg PUBLIC "-//W3C//DTD SVG 1.1//EN" "http://www.w3.org/Graphics/SVG/1.1/DTD/svg11.dtd"><svg width="100%" height="100%" viewBox="0 0 6564 2070" version="1.1" xmlns="http://www.w3.org/2000/svg" xmlns:xlink="http://www.w3.org/1999/xlink" xml:space="preserve" xmlns:serif="http://www.serif.com/" style="fill-rule:evenodd;clip-rule:evenodd;stroke-linejoin:round;stroke-miterlimit:2;"><g id="Artwork"><g><path d="M1974.91,1368.06l264.742,0l0,-583.675l233.064,0l0,-230.215l-730.87,0l0,230.215l233.064,0l0,583.675Z" style="fill:#00aeef;fill-rule:nonzero;"/><path d="M2494.46,1368.06l681.089,0l0,-223.238l-420.873,0l0,-88.365l386.931,0l0,-196.497l-386.931,0l0,-82.551l415.216,0l0,-223.239l-675.432,0l0,813.89Z" style="fill:#00aeef;fill-rule:nonzero;"/><path d="M3150.9,1368.06l282.845,0l40.729,-109.294l277.187,0l41.861,109.294l287.37,0l-333.756,-819.703l-262.479,0l-333.757,819.703Zm390.325,-302.302l72.408,-197.659l72.409,197.659l-144.817,0Z" style="fill:#00aeef;fill-rule:nonzero;"/><path d="M4053.47,1368.06l259.086,0l0,-403.457l182.151,289.513l4.526,0l182.152,-289.513l0,403.457l263.61,0l0,-813.89l-276.056,0l-169.706,286.024l-169.707,-286.024l-276.056,0l0,813.89Z" style="fill:#00aeef;fill-rule:nonzero;"/><path d="M5042.22,1368.06l270.145,0l0,-266.258l377.511,0l0,-211.612l-377.511,0l0,-103.48l406.373,0l0,-232.54l-676.518,0l0,813.89Z" style="fill:#00aeef;fill-rule:nonzero;"/><path d="M5652.64,1368.06l301.316,0l129.3,-211.611l128.146,211.611l307.089,0l-273.609,-417.409l262.064,-396.481l-301.316,0l-117.756,194.171l-116.601,-194.171l-307.089,0l262.065,399.969l-273.609,413.921Z" style="fill:#00aeef;fill-rule:nonzero;"/></g><path d="M25.83,902.966l573.996,574l-573.992,573.992l524.259,0l311.862,-311.867l311.862,311.867l524.259,0l-573.996,-573.992l574,-573.996l-524.25,0l-311.875,311.867l-311.875,-311.867l-524.242,0l0,-0.012l-0.008,0.008Z" style="fill:#231f20;fill-rule:nonzero;"/><path d="M550.085,840.294l311.871,-311.866l311.863,311.866l524.262,0l-573.996,-573.992l-262.129,-262.133l-262.129,262.125l-573.992,574l524.25,0Z" style="fill:#231f20;fill-rule:nonzero;"/><path d="M861.953,617.062l254.569,254.568l-254.569,254.569l-254.569,-254.569l254.569,-254.568Z" style="fill:#00aeef;"/><g><path d="M1752.44,2050.96l77.7,0l44.4,-104.217l204.116,0l43.784,104.217l80.166,0l-189.933,-434.75l-70.3,0l-189.933,434.75Zm149.85,-171.433l74,-172.667l74.616,172.667l-148.616,0Z" style="fill:#231f20;fill-rule:nonzero;"/><path d="M2478.26,2057.74c112.85,0 185.617,-64.75 185.617,-193.633l0,-244.817l-75.85,0l0,248.517c0,79.55 -41.317,120.25 -108.533,120.25c-67.834,0 -109.15,-43.167 -109.15,-123.333l0,-245.434l-75.85,0l0,248.517c0,125.183 71.533,189.933 183.766,189.933Z" style="fill:#231f20;fill-rule:nonzero;"/><path d="M2959.26,2057.12c90.65,0 154.167,-48.1 154.167,-128.884l0,-1.233c0,-71.533 -47.483,-104.217 -138.75,-126.417c-82.633,-19.733 -102.367,-34.533 -102.367,-67.833l0,-1.233c0,-28.367 25.9,-51.184 70.3,-51.184c39.467,0 78.317,15.417 117.167,44.4l40.7,-57.35c-43.783,-35.15 -93.733,-54.266 -156.633,-54.266c-85.717,0 -147.384,51.183 -147.384,125.183l0,1.233c0,79.55 51.8,106.684 143.684,128.884c80.166,18.5 97.433,35.15 97.433,65.983l0,1.233c0,32.684 -29.6,54.267 -76.467,54.267c-53.65,0 -94.966,-20.35 -136.283,-56.117l-45.633,54.267c51.8,46.25 114.083,69.067 180.066,69.067Z" style="fill:#231f20;fill-rule:nonzero;"/><path d="M3339.74,2050.96l76.466,0l0,-361.367l136.9,0l0,-70.3l-350.266,0l0,70.3l136.9,0l0,361.367Z" style="fill:#231f20;fill-rule:nonzero;"/><rect x="3677.67" y="1619.29" width="75.85" height="431.667" style="fill:#231f20;fill-rule:nonzero;"/><path d="M3908.92,2050.96l74.617,0l0,-307.1l238.033,307.1l63.517,0l0,-431.667l-74.617,0l0,298.467l-231.25,-298.467l-70.3,0l0,431.667Z" style="fill:#231f20;fill-rule:nonzero;"/><path d="M4816.98,2050.96l312.034,0l0,-66.6l-205.35,0l88.8,-74c76.466,-62.283 112.233,-99.283 112.233,-167.117l0,-1.233c0,-77.083 -57.967,-128.883 -142.45,-128.883c-77.083,0 -117.783,32.683 -159.1,90.65l53.65,41.933c33.3,-43.167 60.433,-64.75 99.9,-64.75c39.467,0 69.683,24.667 69.683,67.217c0,38.85 -21.583,66.6 -80.783,116.55l-148.617,126.416l0,59.817Z" style="fill:#231f20;fill-rule:nonzero;"/><path d="M5427.48,2058.36c113.467,0 188.7,-99.9 188.7,-223.233l0,-1.234c0,-123.333 -74.616,-222 -187.466,-222c-113.467,0 -188.7,99.9 -188.7,223.234l0,1.233c0,123.333 74,222 187.466,222Zm1.234,-68.45c-67.217,0 -110.384,-69.683 -110.384,-154.783l0,-1.234c0,-85.716 42.55,-153.55 109.15,-153.55c66.6,0 110.384,69.684 110.384,154.784l0,1.233c0,85.1 -41.934,153.55 -109.15,153.55Z" style="fill:#231f20;fill-rule:nonzero;"/><path d="M5715.46,2050.96l312.033,0l0,-66.6l-205.35,0l88.8,-74c76.467,-62.283 112.233,-99.283 112.233,-167.117l0,-1.233c0,-77.083 -57.966,-128.883 -142.45,-128.883c-77.083,0 -117.783,32.683 -159.1,90.65l53.65,41.933c33.3,-43.167 60.434,-64.75 99.9,-64.75c39.467,0 69.684,24.667 69.684,67.217c0,38.85 -21.584,66.6 -80.784,116.55l-148.616,126.416l0,59.817Z" style="fill:#231f20;fill-rule:nonzero;"/><path d="M6325.96,2058.36c113.466,0 188.7,-99.9 188.7,-223.233l0,-1.234c0,-123.333 -74.617,-222 -187.467,-222c-113.467,0 -188.7,99.9 -188.7,223.234l0,1.233c0,123.333 74,222 187.467,222Zm1.233,-68.45c-67.217,0 -110.383,-69.683 -110.383,-154.783l0,-1.234c0,-85.716 42.55,-153.55 109.15,-153.55c66.6,0 110.383,69.684 110.383,154.784l0,1.233c0,85.1 -41.933,153.55 -109.15,153.55Z" style="fill:#231f20;fill-rule:nonzero;"/></g></g></svg>